<?xml version="1.0" encoding="UTF-8"?>
<svg id="Layer_1" data-name="Layer 1" xmlns="http://www.w3.org/2000/svg" viewBox="0 0 284.39 68.56">
  <defs>
    <style>
      .cls-1 {
        fill: #272525;
      }
    </style>
  </defs>
  <rect class="cls-1" x="44.32" y=".36" width="11.27" height="68.2" rx="2.07" ry="2.07"/>
  <rect class="cls-1" x="32.02" y=".36" width="11.27" height="68.2" rx="2.07" ry="2.07"/>
  <rect class="cls-1" x="24.06" y="8.9" width="7.1" height="51.12" rx="2.07" ry="2.07"/>
  <path class="cls-1" d="M18.74,29.94h0c0,.27-.22.48-.48.48H1.56C-.14,30.43,0,30.65,0,31.69v5.54c0,1.04-.15,1.26,1.56,1.26h16.69c.27,0,.48.22.48.48h0c0,1.57.26,2.92.41,3.56.05.22.25.38.48.38h2.95c.27,0,.48-.22.48-.48v-15.93c0-.27-.22-.48-.48-.48h-2.95c-.23,0-.43.16-.48.38-.15.63-.41,1.99-.41,3.56Z"/>
  <rect class="cls-1" x="228.8" width="11.27" height="68.2" rx="2.07" ry="2.07" transform="translate(468.86 68.2) rotate(-180)"/>
  <rect class="cls-1" x="241.1" width="11.27" height="68.2" rx="2.07" ry="2.07" transform="translate(493.47 68.2) rotate(-180)"/>
  <rect class="cls-1" x="253.23" y="8.54" width="7.1" height="51.12" rx="2.07" ry="2.07" transform="translate(513.56 68.2) rotate(-180)"/>
  <path class="cls-1" d="M265.65,29.59h0c0,.27.22.48.48.48h16.69c1.71,0,1.56.22,1.56,1.26v5.54c0,1.04.15,1.26-1.56,1.26h-16.69c-.27,0-.48.22-.48.48h0c0,1.57-.26,2.92-.41,3.56-.05.22-.25.38-.48.38h-2.95c-.27,0-.48-.22-.48-.48v-15.93c0-.27.22-.48.48-.48h2.95c.23,0,.43.16.48.38.15.63.41,1.99.41,3.56Z"/>
  <path class="cls-1" d="M218.15,30.43H66.08c-.01-1.82-.34-3.26-3.29-3.27h-6.14v14.6h6.14c2.83-.04,3.27-1.46,3.29-3.27h152.06c.02,1.82.45,3.24,3.29,3.27h6.14v-14.6h-6.14c-2.94.02-3.27,1.46-3.29,3.27Z"/>
</svg>