<?xml version="1.0" encoding="UTF-8"?>
<svg id="Layer_1" data-name="Layer 1" xmlns="http://www.w3.org/2000/svg" viewBox="0 0 426.72 456.12">
  <defs>
    <style>
      .cls-1 {
        fill: #fff;
      }

      .cls-2 {
        fill: #fdb517;
      }
    </style>
  </defs>
  <g>
    <rect class="cls-2" x="66.51" y="373.13" width="16.91" height="82.99" rx="2.07" ry="2.07"/>
    <rect class="cls-2" x="48.05" y="373.13" width="16.91" height="82.99" rx="2.07" ry="2.07"/>
    <rect class="cls-2" x="36.11" y="383.52" width="10.65" height="62.2" rx="2.07" ry="2.07"/>
    <path class="cls-2" d="M28.12,409.13h0c0,.33-.33.58-.72.58H2.35c-2.55.01-2.34.28-2.34,1.55v6.74c0,1.27-.23,1.53,2.34,1.53h25.04c.41,0,.72.27.72.58h0c0,1.91.39,3.55.62,4.33.08.27.38.46.72.46h4.43c.41,0,.72-.27.72-.58v-19.38c0-.33-.33-.58-.72-.58h-4.43c-.35,0-.65.19-.72.46-.23.77-.62,2.42-.62,4.33l.02-.02Z"/>
    <rect class="cls-2" x="343.3" y="372.69" width="16.91" height="82.99" rx="2.07" ry="2.07"/>
    <rect class="cls-2" x="361.78" y="372.69" width="16.91" height="82.99" rx="2.07" ry="2.07"/>
    <rect class="cls-2" x="379.98" y="383.09" width="10.65" height="62.2" rx="2.07" ry="2.07"/>
    <path class="cls-2" d="M398.61,408.7h0c0,.33.33.58.72.58h25.04c2.57,0,2.34.27,2.34,1.53v6.74c0,1.27.23,1.53-2.34,1.53h-25.04c-.41,0-.72.27-.72.58h0c0,1.91-.39,3.55-.62,4.33-.08.27-.38.46-.72.46h-4.43c-.41,0-.72-.27-.72-.58v-19.38c0-.33.33-.58.72-.58h4.43c.35,0,.65.19.72.46.23.77.62,2.42.62,4.33h0Z"/>
    <path class="cls-2" d="M327.34,409.72H99.16c-.02-2.21-.51-3.97-4.94-3.98h-9.21v17.77h9.21c4.25-.05,4.91-1.78,4.94-3.98h228.17c.03,2.21.68,3.94,4.94,3.98h9.21v-17.77h-9.21c-4.41.02-4.91,1.78-4.94,3.98h.01Z"/>
  </g>
  <g>
    <path class="cls-1" d="M84.18,144.14l20.69-.08-11.86,117.33-26.89.03c-1.97-16.89-2.99-32.7-5.93-49.05l-5.5,49.13-28.3-.07-11.89-117.35h22.5s5.49,55.35,5.49,55.35c2.96-19.07,4-36.32,5.97-55.32l24.18-.09,5.73,54.77c3.23-19.06,3.73-35.65,5.81-54.66Z"/>
    <polygon class="cls-1" points="324.74 405.59 301.96 405.59 285.88 344.35 285.42 405.59 264.16 405.59 264.17 288.1 291.19 288.04 303.26 334.1 303.72 288.04 324.73 288.02 324.74 405.59"/>
    <path class="cls-1" d="M280.71,117.39l-23.71.1c-1.2-3.9-2.29-7.85-2.3-11.64l-.11-29.05c0-1.96-1.31-5.26-2.75-6.16-1.77-1.11-5.79-1.3-8.75-.9v47.72s-23.16,0-23.16,0l.06-117.42,32.21.26c8.11.07,16.36,3.18,20.87,9.91s4.54,15.34,4.61,23.5c.09,9.1-1.59,17.61-8.44,23.98,5.34,4.29,8.08,10.38,8.17,17.15l.4,30.9c.05,3.52,1.19,6.37,2.91,11.67ZM253.27,45.16c2.27-7.6,1.85-14.95-.04-21.95-2.42-2.03-7.65-2.19-10.21-1.1l.12,25.64c3.06.81,9.25.36,10.13-2.59Z"/>
    <path class="cls-1" d="M240.71,261.38l-23.73.08c-1.34-4.22-2.31-8.4-2.32-12.64l-.07-28.02c0-1.97-1.29-5.27-2.74-6.14-1.95-1.17-5.68-1.32-8.77-.93v47.72s-23.23-.04-23.23-.04l.09-117.38,33.81.37c12.46.14,22.01,8.45,23.3,20.78,1.41,13.5,1.67,27.3-7.67,36.5,4.66,3.99,7.88,9.86,7.97,16.22l.44,31.82c.05,3.51,1.2,6.39,2.92,11.66ZM213.29,189.07c2.08-6.96,2.05-14.7.01-21.03-1.11-3.45-7.95-3.26-10.25-1.77l.09,25.48c3.11.79,9.21.46,10.15-2.68Z"/>
    <polygon class="cls-1" points="140.07 117.36 116.86 117.46 116.96 66.77 103.57 66.77 103.58 117.43 80.56 117.42 80.55 .15 103.58 0 103.58 45.74 116.96 45.71 116.96 .04 140.05 .04 140.07 117.36"/>
    <path class="cls-1" d="M346.99,92.32c-1.64,14.1-10.67,24.79-24.7,24.9l-33.73.26V.1s32.55.13,32.55.13c14.72.06,24.99,10.67,25.9,25.44v66.65ZM324,88.26V27.68c0-1.44-1.48-5.14-2.83-5.53-2.45-.71-6.75-.73-9.58-.4v73.99c3.05.51,7.86.57,10.14-.8,1.26-.76,2.28-4.58,2.28-6.68Z"/>
    <path class="cls-1" d="M312.76,261.31l-24.09.23-13.21-44.17c-1.22,1.23-3.79,4.66-3.8,6.44l-.12,37.64h-22.99s0-117.29,0-117.29l22.94-.13.31,36.55,17.62-36.52,23.8.12-22.45,43.9,21.99,73.23Z"/>
    <path class="cls-1" d="M169.21,236.92c-.53,17.46-14.11,26.36-29.61,26.19-15.07-.16-27.96-9.25-28.52-25.84-.77-22.91-.6-46.05-.07-69.28.2-9.05,5.47-17.82,13.06-21.65,9.85-4.98,21.49-5.03,31.47-.33,7.99,3.77,13.5,12.63,13.72,21.98.54,22.89.67,45.62-.04,68.92ZM146.57,234.94l-.03-64.83c0-3.52-3.71-6.25-6.41-6.25s-6.41,2.72-6.4,6.25v65.23c0,3.89,3.29,6.6,6.39,6.51,2.81-.08,6.45-2.73,6.44-6.91Z"/>
    <path class="cls-2" d="M404.54,210.89l.24,33.88,1.08,8.88,1.81,7.4-21.08.35-3.06-5.15c-4.02,4.95-8.99,6.54-14.86,6.56-17.86.03-21.73-17.62-21.55-35.05.12-11.34,1.52-21.13,10.41-28.46-7.29-5.89-9.36-15.09-9.12-24.54.23-9.04,1.53-18.4,9-24.18,3.3-2.56,8.13-5.61,12.21-5.89,10.17-.7,18.83-.57,29.91-.32l.19,20.67-22.9.37c-2.77.04-6.13,1.12-6.04,4.47l.47,17.07c2.54,3.33,8.33,3.16,12.24,2.55l.19-12.1,20.78-.11.24,12.32,4.94.28v20.68s-5.1.32-5.1.32ZM383.56,234.22l.08-23.4c-3.98-.05-7.23,0-10.95,1.29-1.88.65-2.94,5.45-2.92,7.47l.21,18.2c.04,3.25,5.2,4.47,8.01,3.88,2.56-.54,5.56-3.55,5.57-7.43Z"/>
    <path class="cls-1" d="M186.99,95.58l-15.27-.04-3.16,21.85-22.01.11L165.69.04l28.55.03,19.1,117.29-23.11.22-3.24-21.99ZM184.1,74.8l-4.96-31.47-4.68,31.62,9.63-.15Z"/>
    <path class="cls-1" d="M196.78,383.58l-15.31-.06-3.02,22.07h-22.16l19.15-117.56,28.57.08,19.09,117.48h-23.05l-3.26-22.01ZM193.94,362.8l-4.84-31.62-4.84,31.78,9.68-.16Z"/>
    <path class="cls-1" d="M158.29,336.59c-1.42,17.02-16.16,24.64-34.02,23.22l.03,45.78h-23.14v-117.54s31.97.19,31.97.19c13.41.08,23.49,9.4,25.32,22.67.3,8.58.56,17.07-.16,25.68ZM135.08,335c1.03-7.89.79-15.4.16-22.93-2.02-3.04-8.18-3.34-11.01-1.92l.05,28.04c2.52,1.23,10.24,1.13,10.8-3.19Z"/>
    <rect class="cls-1" x="229.67" y="288.06" width="23.02" height="117.53"/>
  </g>
</svg>