<?xml version="1.0" encoding="UTF-8"?>
<svg id="Layer_1" data-name="Layer 1" xmlns="http://www.w3.org/2000/svg" viewBox="0 0 512 512">
  <defs>
    <style>
      .cls-1 {
        fill: #f1f0f0;
      }

      .cls-2 {
        fill: #fdb517;
      }
    </style>
  </defs>
  <g>
    <path class="cls-1" d="M125.41,38.86h21.93v48.6h17.67v-48.6h21.93v118.75h-21.93v-47.32h-17.67v47.32h-21.93V38.86Z"/>
    <path class="cls-1" d="M234.75,135.5h-17.67l-2.37,22.11h-22.09l14.67-118.75h37.71l14.36,118.75h-22.25l-2.37-22.11ZM219.45,113.22h13.1l-5.36-51.34h-2.37l-5.36,51.34Z"/>
    <path class="cls-1" d="M264.72,157.61V38.86h45.75c10.1,0,13.88,6.58,13.88,21.74v39.64c0,11.51-2.37,17.9-8.2,20.1l9.31,37.27h-21.93l-8.36-35.08h-8.52v35.08h-21.93ZM302.91,99.7v-37.63h-16.25v37.63h16.25Z"/>
    <path class="cls-1" d="M332.57,38.86h43.86c13.25,0,16.72,9.5,16.72,24.85v70.52c0,11.69-4.26,23.38-17.83,23.38h-42.76V38.86ZM371.38,134.41V62.06h-16.88v72.35h16.88Z"/>
  </g>
  <g>
    <path class="cls-1" d="M53.91,181.89h21.77l6.94,92.08h1.26l9.47-92.08h24.14l10.41,92.26h1.1l6.63-92.26h21.77l-12.94,118.75h-29.98l-8.2-79.47h-1.1l-8.05,79.47h-29.98l-13.25-118.75Z"/>
    <path class="cls-1" d="M161.51,277.62v-72.53c0-14.8,6.47-23.2,17.2-23.2h26.35c12.62,0,17.99,8.95,17.99,24.3v70.89c0,14.62-6.31,23.57-18.14,23.57h-25.56c-10.57,0-17.83-7.67-17.83-23.02ZM201.11,277.44v-72.35h-17.67v72.35h17.67Z"/>
    <path class="cls-1" d="M231.87,300.64v-118.75h45.76c10.1,0,13.88,6.58,13.88,21.74v39.64c0,11.51-2.37,17.9-8.2,20.1l9.31,37.27h-21.93l-8.36-35.08h-8.52v35.08h-21.93ZM270.05,242.73v-37.63h-16.25v37.63h16.25Z"/>
    <path class="cls-1" d="M299.71,300.64v-118.75h21.93v48.05h3.63l14.36-48.05h23.98l-18.14,58.1v1.46l19.72,59.19h-24.14l-15.78-48.23h-3.63v48.23h-21.93Z"/>
  </g>
  <g>
    <path class="cls-1" d="M143.68,326.04h45.6c11.2,0,13.73,7.86,13.73,22.11v47.87c0,10.96-4.1,20.83-15.78,20.83h-21.62v27.95h-21.93v-118.75ZM181.07,394.19v-44.94h-15.46v44.94h15.46Z"/>
    <path class="cls-1" d="M246.07,422.69h-17.67l-2.37,22.11h-22.09l14.67-118.75h37.71l14.36,118.75h-22.25l-2.37-22.11ZM230.77,400.4h13.1l-5.36-51.34h-2.37l-5.36,51.34Z"/>
    <path class="cls-1" d="M276.52,326.04h21.93v118.75h-21.93v-118.75Z"/>
    <path class="cls-1" d="M345.62,444.79l-11.83-39.28c-3-10.05-6-26.12-8.52-41.84.47,14.62.95,28.68.95,36.36v44.76h-18.46v-118.75h26.03l13.09,46.95c3.63,12.97,7.1,29.96,9.78,44.94-.79-13.52-1.42-27.59-1.42-37.27v-54.62h18.46v118.75h-28.08Z"/>
  </g>
  <g>
    <rect class="cls-2" x="111.65" y="418.57" width="16.62" height="82.99" rx="2.07" ry="2.07"/>
    <rect class="cls-2" x="93.51" y="418.57" width="16.62" height="82.99" rx="2.07" ry="2.07"/>
    <rect class="cls-2" x="81.77" y="428.96" width="10.47" height="62.2" rx="2.07" ry="2.07"/>
    <path class="cls-2" d="M73.92,454.56h0c0,.33-.32.58-.71.58h-24.63c-2.51.01-2.3.28-2.3,1.55v6.74c0,1.27-.22,1.53,2.3,1.53h24.62c.4,0,.71.27.71.58h0c0,1.91.38,3.55.6,4.33.07.27.37.46.71.46h4.35c.4,0,.71-.27.71-.58v-19.38c0-.33-.32-.58-.71-.58h-4.35c-.34,0-.63.19-.71.46-.22.77-.6,2.42-.6,4.33v-.02Z"/>
    <rect class="cls-2" x="383.73" y="418.13" width="16.62" height="82.99" rx="2.07" ry="2.07"/>
    <rect class="cls-2" x="401.88" y="418.13" width="16.62" height="82.99" rx="2.07" ry="2.07"/>
    <rect class="cls-2" x="419.77" y="428.52" width="10.47" height="62.2" rx="2.07" ry="2.07"/>
    <path class="cls-2" d="M438.09,454.13h0c0,.33.32.58.71.58h24.62c2.52,0,2.3.27,2.3,1.53v6.74c0,1.27.22,1.53-2.3,1.53h-24.62c-.4,0-.71.27-.71.58h0c0,1.91-.38,3.55-.6,4.33-.07.27-.37.46-.71.46h-4.35c-.4,0-.71-.27-.71-.58v-19.38c0-.33.32-.58.71-.58h4.35c.34,0,.63.19.71.46.22.77.6,2.42.6,4.33h0Z"/>
    <path class="cls-2" d="M368.03,455.16h-224.29c-.01-2.21-.5-3.97-4.85-3.98h-9.06v17.77h9.06c4.17-.05,4.82-1.78,4.85-3.98h224.27c.03,2.21.66,3.94,4.85,3.98h9.06v-17.77h-9.06c-4.34.02-4.82,1.78-4.85,3.98h.01Z"/>
    <rect class="cls-2" x="129.84" y="449.79" width="252.09" height="20.55"/>
  </g>
  <path class="cls-2" d="M450.55,293.5c-1.89,4.02-4.73,7.67-11.04,7.67h-21.93c-10.57,0-17.83-7.67-17.83-22.65v-24.85l13.57-14.8-10.25-15.16v-17.36c0-15.71,6.15-23.93,19.25-23.93h14.67c14.36,0,19.88,8.04,19.88,24.48v12.97l-17.83,19.91,6.63,9.68,5.21-14.8h21.3l-12.78,35.08,21.3,31.42h-24.93l-5.21-7.67ZM421.36,278.34h14.04l1.58-4.57-12.31-18.27-3.31,3.84v19ZM427.67,223.16l7.73-8.4v-9.5h-10.73v13.34l3,4.57Z"/>
</svg>